<?xml version="1.0" standalone="no"?>
<!DOCTYPE svg PUBLIC "-//W3C//DTD SVG 20010904//EN"
 "http://www.w3.org/TR/2001/REC-SVG-20010904/DTD/svg10.dtd">
<svg version="1.0" xmlns="http://www.w3.org/2000/svg"
 width="1125.000000pt" height="1500.000000pt" viewBox="0 0 1125.000000 1500.000000"
 preserveAspectRatio="xMidYMid meet">
<metadata>
Created by potrace 1.16, written by Peter Selinger 2001-2019
</metadata>
<g transform="translate(0.000000,1500.000000) scale(0.100000,-0.100000)"
fill="#000000" stroke="none">
<path d="M0 7500 l0 -7500 5625 0 5625 0 0 7500 0 7500 -5625 0 -5625 0 0
-7500z m5372 7282 c-15 -5 -16 -34 -2 -48 14 -14 3 -41 -19 -47 -16 -4 -18
-13 -15 -63 4 -55 2 -62 -29 -98 -30 -33 -37 -37 -55 -27 -16 9 -23 8 -29 -3
-4 -8 -25 -21 -45 -29 -22 -10 -38 -23 -38 -33 0 -10 5 -14 15 -10 10 4 17 -3
21 -22 3 -15 9 -37 14 -49 6 -15 4 -39 -6 -73 -10 -34 -12 -56 -5 -68 8 -14 4
-20 -20 -31 -16 -7 -29 -18 -29 -26 0 -7 -6 -18 -14 -24 -11 -10 -16 -9 -24 5
-8 14 -23 16 -86 15 -75 -2 -77 -1 -71 19 4 12 1 41 -6 65 -10 34 -18 44 -34
44 -11 0 -29 2 -41 6 -18 6 -22 2 -28 -25 -8 -41 -8 -133 0 -154 9 -22 24 -10
24 20 0 13 5 24 10 24 6 0 10 -5 10 -11 0 -6 10 -19 22 -29 16 -12 22 -29 23
-59 0 -22 6 -46 13 -53 7 -7 12 -17 12 -24 0 -7 6 -15 13 -18 6 -4 2 -4 -11
-2 -21 4 -23 2 -17 -24 3 -16 2 -31 -4 -35 -7 -4 -8 -12 -2 -23 15 -28 7 -96
-14 -119 -31 -34 -41 -47 -48 -67 -10 -25 1 -59 17 -53 21 8 37 -8 46 -49 7
-30 5 -42 -7 -56 -24 -27 -72 -48 -107 -48 -44 0 -103 -18 -122 -38 -9 -9 -40
-24 -68 -34 -57 -21 -70 -22 -61 -8 3 6 -1 10 -10 10 -11 0 -15 5 -11 15 4 11
-3 19 -20 25 -36 14 -44 12 -44 -7 0 -16 -45 -63 -60 -63 -4 0 -13 7 -20 15
-7 8 -27 15 -45 15 -20 0 -35 -6 -39 -15 -3 -8 -12 -15 -21 -15 -8 0 -15 -4
-15 -10 0 -5 -6 -10 -14 -10 -36 0 -123 -71 -139 -113 -4 -10 -20 -23 -37 -28
-19 -7 -32 -20 -36 -35 -3 -13 -10 -24 -15 -24 -5 0 -9 -11 -9 -25 0 -15 -7
-28 -17 -32 -10 -3 -25 -12 -34 -20 -20 -17 -45 -8 -52 19 -5 16 -12 19 -47
17 -32 -3 -44 1 -52 15 -14 26 -4 88 23 139 12 23 23 53 25 67 5 42 28 100 40
100 7 0 14 6 17 14 3 8 20 21 38 30 26 13 34 14 41 4 6 -8 7 -1 3 18 -6 29 -4
31 19 27 15 -3 26 -12 26 -19 0 -17 42 -10 80 14 14 9 31 15 38 14 6 -2 12 2
12 8 0 5 8 10 18 10 13 0 17 10 19 47 1 25 7 51 13 57 5 5 10 18 10 28 0 10 7
18 15 18 8 0 32 18 52 40 21 22 44 40 50 40 7 0 16 12 19 26 4 17 18 31 40 40
51 21 99 75 114 128 7 25 16 46 20 46 4 0 6 32 4 71 -3 44 -1 68 5 65 18 -12
22 33 5 59 -9 14 -18 36 -19 48 -2 12 -5 28 -6 36 -7 26 21 23 31 -4 12 -31
30 -24 30 11 0 15 -7 27 -20 32 -20 7 -20 7 0 40 18 29 22 31 40 20 23 -15 27
-53 5 -62 -8 -3 -15 -17 -15 -33 1 -24 3 -26 13 -13 7 8 19 15 27 15 9 0 13 6
10 15 -8 28 -6 181 3 187 14 9 27 -19 20 -44 -3 -14 -1 -23 6 -23 6 0 11 12
12 28 0 15 3 34 7 43 6 14 9 15 20 3 7 -8 8 -14 2 -14 -15 0 -12 -17 5 -24 22
-8 47 4 41 20 -6 16 29 20 39 4 6 -10 43 6 57 25 5 6 8 5 8 -3 0 -10 5 -10 21
-2 11 7 27 9 35 6 8 -3 33 4 56 15 34 18 47 19 81 11 31 -8 43 -8 54 4 8 8 21
14 29 14 9 0 22 7 30 15 14 13 13 15 -5 15 -12 0 -21 4 -21 8 0 10 49 36 70
37 10 0 14 9 13 23 -2 15 1 21 8 16 6 -3 15 0 20 7 5 8 23 14 41 14 29 0 33 3
34 26 1 40 12 61 26 53 9 -6 9 -9 0 -12z m-4582 -977 c8 -7 26 -15 40 -17 33
-4 41 -43 11 -51 -12 -3 -21 -13 -21 -24 0 -31 -42 -79 -65 -75 -17 4 -18 2
-6 -12 11 -13 11 -19 1 -31 -6 -8 -9 -23 -5 -34 5 -16 2 -18 -15 -14 -11 3
-20 1 -20 -5 0 -23 13 -42 30 -42 10 0 20 -9 23 -20 3 -11 12 -20 21 -20 11 0
16 -9 16 -32 0 -23 -3 -29 -9 -19 -13 20 -41 6 -41 -21 0 -30 -33 -58 -76 -65
-35 -6 -47 10 -23 34 8 8 8 13 0 17 -6 4 -11 0 -11 -8 0 -25 -82 -22 -106 5
-16 17 -16 22 -4 31 12 8 11 8 -5 3 -36 -13 -48 -10 -50 12 -1 11 3 19 9 17 6
-2 16 6 21 18 6 13 20 24 33 26 28 4 28 23 1 40 -14 9 -18 17 -11 24 13 13 52
-11 52 -33 0 -9 12 -21 27 -28 32 -15 43 -5 74 69 11 25 27 51 36 57 9 7 14
16 10 19 -7 8 -37 -20 -37 -35 0 -6 -2 -11 -4 -11 -2 0 -11 -3 -20 -6 -11 -4
-16 0 -16 13 0 10 -4 23 -9 29 -5 5 -5 34 -1 64 6 41 4 61 -6 77 -14 23 -4 40
17 27 6 -3 14 -2 18 3 26 38 87 47 121 18z m120 -627 c0 -6 10 -22 22 -35 18
-19 32 -23 83 -23 41 0 73 -6 100 -20 21 -11 52 -24 69 -30 45 -14 60 -43 43
-78 -8 -15 -17 -58 -21 -97 -13 -133 -13 -133 9 -133 48 0 60 -8 63 -43 5 -50
-17 -138 -46 -181 -14 -21 -28 -38 -33 -38 -5 0 -13 -8 -18 -18 -8 -14 -4 -27
14 -55 29 -42 30 -47 10 -47 -8 0 -15 -4 -15 -10 0 -5 -8 -10 -18 -10 -10 0
-27 -7 -38 -15 -12 -9 -43 -14 -86 -15 -63 0 -69 2 -104 35 -20 19 -40 35 -45
35 -7 0 -67 71 -109 130 -15 21 -16 20 -62 -22 -87 -81 -112 -95 -168 -100
-40 -3 -45 -1 -48 20 -2 12 1 22 6 22 5 0 12 9 15 20 4 15 0 20 -13 20 -25 0
-36 19 -16 26 9 3 16 13 16 20 0 8 11 19 24 24 29 11 44 32 28 38 -18 6 -14
29 5 37 16 6 15 8 -7 25 -20 16 -22 20 -7 20 13 0 17 9 17 40 0 29 -4 40 -15
40 -12 0 -11 4 5 20 11 11 20 24 20 29 0 5 12 12 27 16 21 5 24 8 12 16 -12 8
-12 11 1 22 11 9 15 27 13 67 -2 44 -1 50 7 32 6 -13 8 -28 4 -33 -3 -5 -1 -9
3 -9 8 0 24 59 39 143 5 29 13 40 40 53 19 9 41 14 49 10 9 -3 15 0 15 11 0 8
10 24 22 34 23 21 88 26 88 7z m2172 -457 c3 8 9 11 13 7 4 -4 4 -15 0 -25 -4
-10 -7 -30 -6 -45 3 -32 -12 -43 -32 -23 -9 8 -32 15 -52 15 -24 0 -38 5 -42
17 -5 14 -8 12 -15 -7 -6 -16 -5 -26 4 -32 8 -5 -4 -7 -31 -6 -26 2 -45 8 -47
16 -1 7 0 8 3 2 10 -21 21 -9 19 22 -1 30 0 31 44 34 30 1 50 9 60 22 24 29
43 32 61 9 13 -15 17 -17 21 -6z m1174 -51 c1 -28 -8 -63 -23 -93 -12 -27 -23
-53 -23 -59 0 -6 -33 -43 -72 -81 -48 -46 -72 -76 -70 -89 2 -10 -2 -18 -7
-18 -6 0 -11 7 -11 15 0 8 -4 15 -10 15 -5 0 -10 -7 -10 -15 0 -9 -9 -15 -25
-15 -19 0 -25 -5 -25 -21 0 -15 -5 -19 -15 -15 -9 3 -43 -1 -76 -9 -55 -12
-64 -12 -95 3 -37 19 -45 52 -19 78 8 9 15 20 15 25 0 13 -86 1 -124 -17 -36
-17 -33 -18 -39 6 -3 11 -12 20 -21 20 -18 0 -19 2 -10 24 3 9 17 16 30 16 13
0 28 9 34 20 11 21 8 24 -22 21 -22 -3 -24 27 -3 35 8 4 15 12 15 20 0 8 7 14
15 14 15 0 19 -16 15 -55 -2 -17 0 -17 14 -5 11 8 16 25 14 44 -3 26 1 31 22
36 14 3 37 13 52 24 31 21 132 35 196 28 34 -4 47 0 65 17 40 36 139 81 177
78 34 -2 35 -3 36 -47z m1260 -99 c-1 -46 0 -49 16 -34 25 22 79 0 77 -31 -1
-17 -2 -17 -6 -3 -2 9 -8 17 -13 17 -14 0 -21 -18 -10 -25 5 -3 7 -17 4 -31
-3 -13 -1 -31 6 -39 10 -12 7 -15 -13 -20 -23 -6 -25 -11 -20 -43 3 -21 9 -41
13 -45 13 -14 164 -37 174 -27 5 5 25 1 48 -11 37 -19 39 -22 24 -38 -17 -19
-21 -37 -8 -44 4 -2 2 -3 -5 -1 -13 3 -23 -27 -23 -72 0 -16 -5 -35 -11 -41
-7 -7 -13 -22 -15 -35 -2 -13 -7 -40 -12 -60 -6 -20 -7 -39 -5 -42 7 -7 32 17
27 26 -2 4 5 9 16 13 11 4 30 16 41 28 20 22 20 22 35 2 9 -12 13 -31 10 -47
-3 -16 -1 -28 4 -28 6 0 10 5 10 10 0 6 5 10 10 10 6 0 10 -11 10 -24 0 -21
-8 -27 -47 -39 -46 -14 -47 -15 -23 -25 27 -11 18 -18 -30 -24 -20 -2 -24 -8
-22 -29 2 -18 -4 -29 -23 -39 -31 -16 -46 -5 -19 15 15 11 16 14 4 15 -8 0
-21 -9 -27 -19 -7 -11 -25 -26 -40 -33 -34 -16 -42 -64 -18 -102 11 -16 13
-26 6 -31 -17 -10 -30 3 -24 25 6 24 -9 26 -43 4 -21 -14 -29 -15 -49 -4 -14
7 -25 19 -25 26 0 9 -7 9 -30 -2 -37 -19 -46 -32 -31 -47 9 -9 14 -8 21 3 8
12 12 12 18 2 14 -21 83 -54 99 -47 9 3 21 1 27 -3 20 -16 76 -31 76 -21 0 12
33 12 46 0 5 -6 32 -5 67 0 32 5 62 7 68 4 5 -4 44 -8 87 -11 87 -5 114 -15
133 -51 7 -14 25 -31 39 -38 15 -8 32 -21 39 -29 8 -9 23 -16 35 -16 12 0 26
-4 32 -9 5 -5 23 -11 39 -13 17 -2 36 -9 43 -15 7 -7 24 -13 38 -13 15 0 24
-6 24 -16 0 -8 4 -13 9 -9 6 3 14 -2 19 -12 8 -14 13 -15 25 -5 11 10 18 8 32
-8 10 -12 25 -18 32 -16 8 3 16 -1 19 -8 4 -10 16 -13 42 -9 50 8 61 20 28 33
-15 5 -24 14 -21 20 9 14 65 12 66 -2 3 -28 4 -34 16 -53 10 -17 15 -18 32 -7
35 21 44 15 38 -26 -5 -41 12 -62 49 -62 18 0 43 -27 44 -46 0 -6 -12 -23 -26
-38 -25 -25 -26 -27 -10 -44 9 -10 16 -28 16 -40 0 -12 5 -22 10 -22 6 0 10
-18 10 -41 0 -35 -2 -40 -19 -34 -12 3 -21 0 -25 -10 -3 -8 -17 -15 -31 -15
-14 0 -34 -9 -46 -21 -12 -12 -29 -19 -40 -16 -14 4 -19 0 -19 -13 0 -12 -12
-22 -34 -30 -19 -6 -37 -19 -39 -28 -3 -9 -5 -2 -6 16 0 17 -6 32 -12 32 -6 0
-8 -8 -4 -19 4 -13 0 -20 -15 -24 -11 -3 -20 -12 -20 -21 0 -9 -4 -16 -9 -16
-5 0 -18 -3 -28 -6 -15 -5 -15 -4 -3 5 8 6 11 11 5 11 -5 0 -20 3 -31 6 -16 4
-23 0 -28 -18 -6 -22 -7 -22 -22 9 -17 34 -44 51 -44 28 0 -8 9 -20 21 -28 13
-9 22 -28 23 -50 3 -29 0 -34 -15 -30 -11 3 -19 10 -19 15 0 6 -11 7 -24 4
-13 -3 -26 -2 -28 3 -2 4 -13 11 -24 15 -17 5 -22 3 -20 -11 0 -10 6 -21 11
-26 6 -4 -2 -5 -17 -3 -25 4 -26 3 -16 -20 12 -27 19 -29 35 -13 15 15 62 0
74 -23 15 -29 3 -51 -24 -44 -26 6 -55 -8 -38 -18 6 -4 11 -11 11 -16 0 -12
-52 -23 -59 -12 -3 5 -15 6 -26 2 -16 -6 -14 -8 12 -13 21 -4 34 -14 38 -29 4
-13 14 -31 23 -40 14 -16 13 -18 -1 -18 -10 0 -17 7 -17 15 0 19 -17 19 -36 0
-11 -10 -30 -14 -59 -11 -24 2 -44 0 -43 -3 3 -17 -24 -60 -42 -66 -11 -3 -18
-11 -15 -16 4 -5 1 -9 -4 -9 -6 0 -11 -6 -11 -14 0 -8 -7 -22 -16 -30 -23 -24
-13 -47 26 -60 24 -8 34 -17 32 -29 -2 -12 4 -17 23 -17 14 0 25 -4 25 -10 0
-5 -5 -10 -10 -10 -6 0 -24 -14 -41 -31 l-30 -30 7 27 c7 26 5 27 -22 21 -40
-8 -64 7 -36 22 11 6 28 8 36 5 24 -9 18 9 -9 29 -37 27 -69 27 -73 0 -3 -21
-23 -29 -54 -24 -5 0 -8 -6 -8 -14 0 -9 -11 -20 -24 -25 -13 -5 -26 -20 -30
-36 -6 -22 -9 -25 -17 -13 -8 10 -9 8 -4 -9 5 -16 1 -24 -11 -29 -10 -4 -19
-2 -22 5 -2 7 -8 12 -13 12 -14 0 -11 -48 4 -53 6 -3 -21 -5 -60 -4 l-73 2 0
-37 c0 -31 -4 -38 -20 -38 -17 0 -20 7 -20 39 0 26 -5 41 -15 45 -21 8 -28
-14 -15 -48 16 -42 12 -51 -19 -53 -29 -2 -29 -1 -24 35 l6 37 -22 -22 c-11
-12 -21 -25 -21 -28 0 -3 -11 -17 -25 -31 -27 -27 -32 -39 -12 -31 9 3 13 -43
15 -207 2 -117 8 -212 13 -214 5 -2 10 -54 11 -115 1 -62 3 -93 5 -70 4 39 6
41 23 31 19 -12 19 -47 0 -73 -14 -20 -20 -66 -13 -107 6 -38 7 -40 14 -18 5
19 7 14 9 -25 1 -27 1 -59 1 -71 -1 -11 5 -26 12 -33 11 -8 13 -24 10 -54 -3
-23 -3 -39 1 -36 9 8 25 99 16 94 -4 -3 -10 6 -12 20 -4 17 -1 25 8 25 19 0
18 6 -6 30 -21 21 -27 50 -10 50 6 0 10 -12 10 -27 0 -20 3 -24 9 -14 7 11 10
11 17 0 11 -19 13 -108 3 -115 -5 -3 -5 -14 1 -24 13 -24 13 -107 0 -115 -15
-9 -2 -25 21 -25 10 0 19 -4 19 -10 0 -5 -4 -10 -10 -10 -16 0 -12 -30 5 -36
8 -4 15 -13 15 -22 0 -13 3 -12 21 4 16 15 22 16 28 5 5 -8 14 -10 21 -6 10 6
12 2 7 -14 -4 -17 -2 -21 9 -17 11 4 12 2 4 -14 -13 -25 -13 -30 5 -30 9 0 15
-10 15 -26 0 -18 6 -28 21 -31 16 -5 18 -8 7 -15 -10 -7 -10 -10 5 -19 9 -5
17 -17 17 -25 0 -9 14 -29 30 -44 24 -22 30 -36 30 -69 0 -23 5 -41 11 -41 6
0 9 -7 5 -15 -3 -9 0 -15 8 -15 8 0 11 -11 9 -32 -3 -23 -2 -29 5 -19 12 17
21 -22 21 -89 0 -28 5 -48 15 -56 11 -8 13 -18 8 -39 l-8 -29 -11 30 c-6 16
-20 58 -31 94 -37 123 -128 340 -143 340 -3 0 -18 17 -32 38 -14 20 -53 66
-87 102 -73 77 -87 105 -96 196 -4 38 -11 74 -15 80 -9 12 -23 69 -40 164 -10
57 -26 253 -35 450 -3 63 -10 119 -15 124 -5 6 -9 28 -9 51 0 23 -4 45 -8 51
-5 5 -15 25 -22 44 -15 40 -92 171 -124 212 -12 15 -32 43 -46 63 -14 20 -29
42 -35 48 -16 19 -31 58 -44 112 -7 27 -18 57 -25 65 -19 24 -44 118 -51 198
-7 79 -2 86 43 53 66 -45 191 -71 382 -78 133 -5 169 -1 304 33 80 20 219 82
273 121 17 13 35 23 39 23 4 0 26 17 49 38 23 20 63 54 88 75 26 21 47 42 47
47 0 12 -27 13 -32 2 -5 -12 -73 -52 -89 -52 -8 0 -36 -11 -64 -24 -99 -47
-127 -51 -372 -51 -170 0 -236 4 -245 13 -6 6 -19 12 -27 12 -14 0 -158 50
-206 71 -11 5 -42 22 -70 39 -27 17 -57 33 -65 37 -21 9 -137 107 -190 162
-98 101 -188 270 -230 434 -18 68 -6 258 20 312 10 22 26 63 35 92 17 52 45
91 45 61 0 -8 -4 -18 -9 -23 -4 -6 -14 -32 -21 -60 -20 -81 -33 -114 -42 -109
-4 3 -7 -52 -7 -123 1 -104 3 -118 9 -74 5 29 13 58 19 64 6 6 11 19 11 28 0
13 6 16 23 11 18 -5 19 -7 4 -10 -10 -2 -16 -9 -14 -15 3 -7 11 -10 18 -8 45
13 59 12 59 0 0 -11 2 -11 10 1 8 13 11 12 24 -5 11 -15 11 -22 3 -27 -28 -18
51 -6 81 12 36 22 39 32 16 51 -13 11 -13 15 -2 23 7 6 13 17 13 25 0 23 23
24 30 1 10 -33 30 -17 29 24 -1 24 3 36 12 36 8 0 14 -6 14 -13 0 -8 6 -14 14
-14 8 0 12 6 9 14 -3 8 2 13 14 13 11 0 29 14 41 30 13 17 28 30 35 31 7 0 29
23 50 50 21 27 41 48 45 45 4 -2 18 11 32 29 14 19 33 36 42 38 10 3 22 17 28
31 5 15 16 26 22 24 23 -4 58 13 58 28 0 8 11 24 25 36 14 12 25 30 25 40 0
21 -4 22 -30 8 -13 -7 -21 -7 -25 0 -3 5 -26 10 -51 10 -43 0 -45 -1 -42 -27
3 -31 35 -44 49 -21 12 18 12 -4 -1 -37 -8 -21 -14 -24 -34 -19 -21 5 -25 1
-31 -24 -5 -24 -10 -29 -27 -24 -16 4 -19 2 -13 -8 6 -10 -1 -12 -33 -7 -24 4
-43 3 -47 -3 -3 -5 -22 -10 -41 -10 -30 0 -34 3 -34 28 0 17 11 37 32 57 26
25 29 26 19 7 -6 -12 -9 -27 -5 -34 4 -7 12 -1 21 15 9 18 19 25 31 21 9 -3 6
1 -8 10 -21 12 -22 16 -8 21 14 6 14 10 2 33 -12 24 -20 27 -69 28 -30 0 -58
3 -60 6 -11 10 7 37 27 40 12 2 29 20 42 43 11 22 27 44 34 48 6 4 12 20 12
34 0 14 17 46 40 75 22 28 40 59 40 68 0 19 69 80 90 80 6 0 23 9 37 20 39 30
60 13 59 -49z m-2091 -441 c3 -6 18 -7 32 -4 22 6 25 4 20 -9 -10 -25 11 -30
24 -6 8 17 13 19 19 8 6 -8 2 -18 -8 -26 -16 -11 -16 -12 1 -13 18 0 25 -20 7
-20 -11 0 28 -62 43 -68 4 -2 7 -10 7 -18 0 -8 7 -14 16 -14 8 0 12 -4 9 -10
-10 -16 22 -12 39 5 8 8 19 15 24 15 6 0 12 7 16 15 3 8 12 15 20 15 8 0 22 9
30 21 11 17 28 22 81 27 66 5 201 -13 220 -30 5 -4 15 -8 21 -8 7 0 25 -5 41
-11 22 -8 24 -12 13 -19 -12 -8 -11 -10 5 -10 11 0 50 -29 86 -63 62 -60 84
-69 101 -43 6 8 8 8 8 -1 0 -6 -8 -19 -17 -29 -16 -16 -16 -16 5 -10 13 4 22
3 22 -3 0 -5 21 -30 47 -55 26 -25 44 -46 40 -46 -4 0 10 -16 32 -35 21 -19
44 -35 50 -35 6 0 11 -9 11 -19 0 -11 5 -23 10 -26 6 -3 10 3 10 14 0 11 3 22
8 25 4 2 7 -18 6 -45 0 -27 3 -49 8 -49 4 0 8 16 8 35 0 19 3 35 8 35 4 0 13
25 20 56 13 52 89 212 115 240 27 27 47 55 47 62 0 13 49 56 56 49 3 -3 -3
-12 -15 -19 -12 -7 -21 -21 -21 -30 0 -10 -4 -18 -10 -18 -5 0 -10 -6 -10 -13
0 -8 -10 -23 -22 -35 -26 -24 -44 -57 -86 -162 -37 -90 -56 -213 -47 -297 5
-55 4 -62 -9 -57 -9 3 -16 12 -16 19 0 7 -12 20 -26 30 -15 10 -23 22 -20 31
3 8 -3 30 -14 49 -11 20 -20 42 -20 49 0 27 -172 226 -195 226 -5 0 -39 28
-75 61 -36 33 -75 68 -87 76 -12 8 -25 23 -28 33 -7 21 -26 27 -154 46 -146
22 -146 22 -231 -46 -41 -33 -80 -60 -86 -60 -21 0 -59 38 -109 109 -62 87
-73 91 -260 90 -221 0 -260 -26 -276 -184 -22 -215 -20 -205 -45 -205 -13 0
-24 4 -24 8 0 5 -24 18 -52 30 -29 12 -60 27 -68 32 -8 5 -43 22 -77 38 -33
17 -69 38 -80 49 -10 10 -37 27 -61 38 -23 11 -42 22 -42 26 0 8 -70 6 -70 -2
0 -4 -21 -9 -47 -12 -27 -3 -62 -9 -79 -12 -19 -4 -34 -3 -38 4 -8 12 1 16 57
26 32 5 37 9 26 21 -20 24 0 29 21 6 26 -28 33 -28 25 -1 -7 21 -5 22 34 16
l42 -5 -23 20 c-21 18 -22 20 -3 16 11 -1 26 -9 33 -16 8 -7 18 -9 23 -6 6 3
17 3 27 -1 11 -4 13 -8 5 -13 -7 -5 -9 -13 -4 -21 12 -19 30 -5 24 19 -4 14 0
20 11 20 10 0 16 -8 16 -21 0 -25 26 -54 35 -39 3 5 11 10 17 10 6 0 4 -8 -5
-18 -16 -18 -15 -18 32 -12 43 5 48 4 43 -12 -3 -12 5 -21 24 -30 48 -20 76
-49 63 -65 -8 -8 -8 -13 -1 -13 6 0 13 6 16 13 5 10 7 10 12 0 8 -18 37 -16
31 1 -3 8 1 17 9 20 10 4 14 -3 14 -29 0 -19 2 -35 4 -35 2 0 12 -3 20 -6 14
-5 15 -2 6 21 -12 32 -13 38 -1 31 5 -4 15 27 22 66 7 40 13 75 14 78 1 3 5
24 9 48 4 23 12 42 17 42 5 0 9 6 9 13 0 19 39 52 75 65 39 14 352 15 360 2z
m-1155 -220 c0 -5 -6 -13 -12 -17 -20 -13 -77 -89 -89 -120 -6 -15 -11 -61
-10 -100 1 -69 -13 -156 -29 -178 -4 -5 -11 -46 -15 -90 -4 -44 -8 -81 -10
-83 -1 -1 -24 6 -51 16 -128 50 -166 38 -300 -96 -29 -29 -55 -48 -59 -43 -3
6 3 16 15 23 11 7 20 18 20 24 0 5 18 26 39 45 32 27 37 37 28 48 -10 11 -8
13 10 7 15 -5 25 -1 36 14 7 11 16 17 19 14 9 -8 48 19 48 34 0 7 5 10 10 7
14 -9 70 17 70 32 0 7 7 13 15 13 8 0 15 -9 15 -21 0 -11 5 -17 10 -14 6 3 10
17 10 31 0 14 4 23 8 20 5 -3 8 -20 6 -38 -3 -39 4 -68 16 -68 4 0 8 10 8 23
-1 12 4 45 10 73 6 28 8 62 5 75 -5 24 -5 24 10 4 16 -19 16 -18 17 22 0 23 4
44 8 47 5 3 7 34 6 70 -1 37 2 69 7 72 5 3 9 13 9 23 0 10 11 28 25 41 14 13
25 30 25 38 0 8 10 25 23 38 22 24 47 32 47 14z m-1735 -121 c-9 -30 -18 -73
-22 -96 -4 -29 -11 -44 -24 -48 -28 -9 -23 -28 11 -43 34 -15 60 -10 110 24
l34 24 26 -25 c14 -14 40 -28 58 -31 43 -9 40 -29 -7 -48 -22 -8 -45 -25 -51
-36 -6 -12 -23 -25 -36 -31 -25 -9 -26 -11 -20 -83 4 -67 3 -75 -18 -93 -13
-11 -29 -29 -37 -40 -8 -10 -32 -32 -54 -48 -22 -16 -44 -34 -50 -40 -11 -12
-143 -35 -161 -28 -18 7 -23 64 -7 70 8 3 13 22 13 53 0 26 7 64 15 83 8 21
11 38 6 42 -6 3 -6 18 0 37 5 20 5 36 -1 43 -21 25 5 235 29 243 13 4 3 54
-12 63 -13 9 0 29 19 29 8 0 14 5 14 10 0 6 7 10 15 10 9 0 26 7 39 16 14 8
36 16 50 18 14 1 29 5 32 9 3 3 15 -2 25 -12 18 -16 18 -20 4 -72z m725 3 c0
-8 -39 -30 -50 -28 -6 0 -27 -18 -126 -109 -39 -36 -78 -65 -87 -65 -10 0 -25
-4 -35 -9 -29 -14 -85 -31 -90 -26 -2 2 5 20 17 40 23 40 27 65 10 82 -13 13
-4 33 17 33 8 0 14 7 14 15 0 8 5 15 10 15 6 0 10 -5 10 -12 0 -6 6 -4 13 7
10 12 19 15 28 9 17 -10 46 -6 73 11 12 7 52 15 89 18 38 3 74 10 80 16 13 13
27 14 27 3z m755 -42 c21 0 65 -22 65 -33 0 -5 -14 -22 -30 -37 -19 -18 -28
-34 -24 -44 9 -24 -23 -20 -36 4 -13 25 -26 26 -34 3 -21 -58 -24 -73 -15 -79
5 -3 7 -10 4 -15 -4 -5 -1 -9 4 -9 6 0 11 5 11 10 0 6 9 10 19 10 11 0 23 5
26 10 4 6 11 7 17 4 6 -4 6 -10 -1 -17 -6 -6 -11 -21 -11 -34 0 -25 -10 -29
-28 -11 -8 8 -12 9 -12 1 0 -6 5 -13 12 -15 19 -7 -23 -55 -62 -71 -19 -9 -58
-29 -85 -45 -45 -26 -53 -28 -70 -16 -10 8 -15 17 -11 21 4 4 11 1 16 -6 7
-12 11 -11 26 4 17 17 17 17 -3 11 -12 -4 -27 -1 -34 6 -8 7 -34 20 -59 28
-51 17 -60 38 -41 101 8 26 20 41 41 50 16 8 34 24 41 36 7 12 16 20 21 17 5
-4 16 3 24 15 9 12 20 19 25 15 6 -3 13 3 16 15 3 12 17 24 32 27 14 4 31 11
37 16 6 4 18 7 25 5 8 -2 11 -2 7 0 -18 10 -6 23 21 23 17 0 33 5 37 12 6 9 9
9 12 0 2 -7 10 -12 17 -12z m-1228 -574 c4 -8 17 -16 28 -18 16 -3 20 -11 19
-43 -1 -22 -7 -41 -13 -43 -6 -2 -11 -11 -11 -21 0 -33 -29 -61 -66 -61 -32 0
-33 -1 -22 -21 11 -17 10 -22 -3 -32 -9 -7 -19 -23 -23 -37 -20 -70 -28 -80
-61 -80 -39 0 -47 -7 -34 -32 17 -32 19 -118 4 -154 -11 -26 -19 -33 -37 -31
-31 3 -39 -38 -9 -46 27 -7 29 -58 4 -83 -16 -16 -27 -68 -13 -59 3 2 12 0 19
-4 10 -7 10 -15 -4 -41 -15 -29 -15 -33 -1 -49 9 -10 16 -35 16 -57 0 -41 0
-41 -95 -96 -16 -9 -46 -17 -65 -17 -29 0 -40 6 -67 42 -18 23 -50 61 -71 84
l-39 41 4 74 c3 56 2 70 -7 58 -9 -12 -10 -2 -6 43 7 63 30 109 51 101 7 -3
16 -1 20 5 3 6 -1 11 -10 11 -24 0 -14 35 10 36 11 1 27 4 35 7 8 4 22 6 30 5
64 -5 93 25 66 67 -11 17 -16 48 -16 101 l0 76 50 48 c32 31 50 57 50 72 0 17
14 32 55 57 30 18 65 43 77 56 49 48 119 69 135 41z m5537 -772 c26 -10 19
-33 -16 -54 -32 -19 -32 -20 -10 -26 26 -7 30 -33 5 -35 -17 -1 -17 -2 0 -6
23 -6 22 -15 -4 -31 -14 -9 -18 -19 -13 -34 l6 -21 -27 21 c-21 17 -31 19 -41
11 -11 -9 -15 -5 -20 20 -4 17 -11 34 -15 37 -21 13 -8 34 21 34 32 0 40 14
14 24 -9 4 -14 9 -11 13 4 3 2 12 -4 19 -13 16 19 27 54 19 14 -4 28 -2 31 4
8 13 9 13 30 5z m-5444 -1805 c0 -29 -18 -48 -70 -74 -39 -20 -53 -35 -75 -80
-8 -16 -24 -43 -34 -60 -35 -55 -72 -119 -88 -157 -9 -21 -19 -38 -24 -38 -4
0 -5 -9 -2 -20 3 -12 -1 -22 -10 -26 -8 -3 -13 -13 -10 -22 2 -10 -3 -31 -11
-47 -9 -17 -16 -39 -16 -50 0 -16 -2 -17 -9 -6 -6 9 -5 25 1 40 12 30 19 64
22 106 2 17 13 46 24 65 12 19 22 43 22 52 0 9 4 19 8 22 5 3 7 18 5 33 -4 33
10 59 26 48 9 -5 9 -10 1 -21 -7 -7 -10 -19 -7 -26 3 -8 9 -2 16 15 7 18 7 35
1 52 -8 20 -6 27 5 31 8 4 15 12 15 20 0 8 8 14 17 14 9 0 29 12 44 26 15 14
49 40 75 57 41 27 50 38 52 66 3 26 6 31 13 20 5 -8 9 -26 9 -40z m2405 -4799
c18 -11 35 -30 39 -43 7 -25 8 -137 2 -137 -3 0 -17 5 -31 10 -22 8 -25 13
-16 24 9 11 9 15 -1 19 -10 4 -11 7 0 18 6 7 12 20 12 30 0 13 -10 16 -57 15
-32 -1 -64 -5 -70 -9 -9 -6 -13 -1 -13 16 0 35 42 69 94 76 5 0 23 -8 41 -19z
m-247 -215 c-25 -26 -113 -83 -119 -79 -5 3 -20 -6 -34 -20 -14 -15 -35 -26
-46 -26 -11 0 -22 -7 -25 -15 -4 -8 -10 -12 -15 -9 -5 3 -12 -2 -15 -10 -3 -9
-12 -16 -19 -16 -7 0 -16 -11 -19 -25 -4 -14 -12 -25 -19 -25 -6 -1 -36 -3
-64 -5 -63 -5 -70 10 -23 47 81 63 97 74 144 99 28 14 65 33 81 42 49 26 192
60 173 42z m489 -16 c59 -13 168 -73 270 -148 93 -69 91 -74 -30 -65 -56 4
-112 7 -124 7 -32 1 -17 17 17 17 41 0 48 29 9 37 -22 4 -27 8 -17 14 9 6 7 9
-9 9 -12 0 -25 5 -28 10 -3 6 -17 10 -31 10 -14 0 -24 6 -24 14 0 7 -14 16
-30 20 -21 4 -34 14 -40 32 -10 25 -12 26 -29 10 -16 -15 -19 -15 -36 4 -10
11 -24 20 -32 20 -16 0 -17 17 0 23 14 6 72 0 134 -14z"/>
</g>
</svg>
